<svg xmlns="http://www.w3.org/2000/svg" xmlns:xlink="http://www.w3.org/1999/xlink" viewBox="0 0 40 40"><path fill="#b6dcfe" d="M7,37.5c-0.827,0-1.5-0.673-1.5-1.5v-9c0-0.426,0.189-0.836,0.519-1.124L6.449,25.5l-0.431-0.376 C5.689,24.836,5.5,24.426,5.5,24v-8c0-0.426,0.189-0.836,0.519-1.124L6.449,14.5l-0.431-0.376C5.689,13.836,5.5,13.426,5.5,13V4 c0-0.827,0.673-1.5,1.5-1.5h26c0.827,0,1.5,0.673,1.5,1.5v9c0,0.426-0.189,0.836-0.519,1.124L33.551,14.5l0.431,0.376 C34.311,15.164,34.5,15.574,34.5,16v8c0,0.426-0.189,0.836-0.519,1.124L33.551,25.5l0.431,0.376 C34.311,26.164,34.5,26.574,34.5,27v9c0,0.827-0.673,1.5-1.5,1.5H7z"/><path fill="#4788c7" d="M33,3c0.551,0,1,0.449,1,1v9c0,0.385-0.218,0.634-0.348,0.747L32.791,14.5l0.861,0.753 C33.782,15.366,34,15.615,34,16v8c0,0.385-0.218,0.634-0.348,0.747L32.791,25.5l0.861,0.753C33.782,26.366,34,26.615,34,27v9 c0,0.551-0.449,1-1,1H7c-0.551,0-1-0.449-1-1v-9c0-0.385,0.218-0.634,0.348-0.747L7.209,25.5l-0.861-0.753 C6.218,24.634,6,24.385,6,24v-8c0-0.385,0.218-0.634,0.348-0.747L7.209,14.5l-0.861-0.753C6.218,13.634,6,13.385,6,13V4 c0-0.551,0.449-1,1-1H33 M33,2H7C5.895,2,5,2.895,5,4v9c0,0.601,0.27,1.133,0.69,1.5C5.27,14.867,5,15.399,5,16v8 c0,0.601,0.27,1.133,0.69,1.5C5.27,25.867,5,26.399,5,27v9c0,1.105,0.895,2,2,2h26c1.105,0,2-0.895,2-2v-9 c0-0.601-0.27-1.133-0.69-1.5C34.73,25.133,35,24.601,35,24v-8c0-0.601-0.27-1.133-0.69-1.5C34.73,14.133,35,13.601,35,13V4 C35,2.895,34.105,2,33,2L33,2z"/><path fill="#4788c7" d="M12.275 21.17c-.044-.704-.089-1.661-.077-2.453h-.022c-.132.792-.33 1.705-.473 2.277l-.649 2.651h-1.012l-.616-2.607c-.144-.594-.341-1.519-.462-2.321H8.941c-.021.803-.077 1.738-.11 2.476l-.132 2.574H7.468l.527-7.415h1.529l.595 2.685c.197.935.385 1.76.517 2.596h.033c.109-.824.274-1.661.462-2.596l.594-2.685h1.519l.451 7.415h-1.287L12.275 21.17zM15.981 18.387l.528 2.806c.065.319.109.604.153.902h.022c.044-.275.088-.583.132-.881l.44-2.827h1.419l-1.101 4.159c-.264 1.012-.616 2.057-1.199 2.739-.462.539-1.001.792-1.221.847l-.44-1.243c.242-.088.495-.242.715-.44.198-.187.353-.418.451-.648.044-.088.077-.154.077-.231 0-.065-.021-.132-.044-.198l-1.485-4.983H15.981zM19.436 22.292c.297.165.813.286 1.221.286.671 0 1.013-.352 1.013-.836 0-.539-.33-.803-.958-1.21-1.012-.616-1.396-1.397-1.396-2.068 0-1.188.792-2.179 2.332-2.179.495 0 .957.133 1.166.265l-.23 1.243c-.209-.132-.528-.253-.936-.253-.616 0-.913.374-.913.77 0 .44.22.671 1.012 1.155.99.594 1.343 1.343 1.343 2.123 0 1.354-1.001 2.245-2.442 2.245-.594 0-1.166-.154-1.419-.298L19.436 22.292zM28.423 24.977c-.627-.264-1.343-.638-1.903-.968-.165-.088-.286-.154-.341-.154-1.452 0-2.333-1.397-2.333-3.817 0-1.991.804-3.773 2.465-3.773 1.793 0 2.277 1.969 2.277 3.663 0 1.838-.407 2.971-1.111 3.355v.056c.473.209.99.374 1.452.55L28.423 24.977zM27.092 19.993c0-1.387-.209-2.476-.848-2.476-.604 0-.913 1.111-.901 2.509-.022 1.507.253 2.574.913 2.574C26.839 22.601 27.092 21.533 27.092 19.993zM29.775 16.352h1.44v6.194h1.893v1.221h-3.333V16.352z"/></svg>