<svg xmlns="http://www.w3.org/2000/svg" xmlns:xlink="http://www.w3.org/1999/xlink" viewBox="0 0 40 40"><path fill="#99c4b8" d="M4.77,37.5c-1.251,0-2.27-1.018-2.27-2.269V4.769C2.5,3.518,3.519,2.5,4.77,2.5H35.23 c1.251,0,2.27,1.018,2.27,2.269v30.462c0,1.251-1.019,2.269-2.27,2.269H4.77z"/><path fill="#5f9994" d="M35.231,3C36.206,3,37,3.794,37,4.769v30.462C37,36.206,36.206,37,35.231,37H4.769 C3.794,37,3,36.206,3,35.231V4.769C3,3.794,3.794,3,4.769,3H35.231 M35.231,2H4.769C3.24,2,2,3.24,2,4.769v30.462 C2,36.76,3.24,38,4.769,38h30.462C36.76,38,38,36.76,38,35.231V4.769C38,3.24,36.76,2,35.231,2L35.231,2z"/><path fill="#fff" d="M19 16v4h2v-4h2l.022 10H21v-4h-2v4h-1.978l.008-10H19zM25 16.192C25.547 16.074 26.286 16 27.024 16c1.153 0 2.133.163 2.768.768.591.517.857 1.344.857 2.186 0 1.079-.324 1.846-.841 2.393-.62.665-1.61.96-2.423.96-.132 0-.251 0-.384-.015V26h-2V16.192zM27 20.727c.103.015.207.015.325.015.975 0 1.404-.695 1.404-1.625 0-.872-.355-1.551-1.256-1.551-.176 0-.354.029-.473.074V20.727zM10 16.192C10.547 16.074 11.286 16 12.024 16c1.153 0 2.133.163 2.768.768.591.517.857 1.344.857 2.186 0 1.079-.324 1.846-.841 2.393-.62.665-1.61.96-2.423.96-.132 0-.251 0-.384-.015V26h-2V16.192zM12 20.727c.103.015.207.015.325.015.975 0 1.404-.695 1.404-1.625 0-.872-.355-1.551-1.256-1.551-.176 0-.354.029-.473.074V20.727z"/></svg>